<?xml version="1.0" encoding="utf-8"?>
<!-- Generator: Adobe Illustrator 24.0.0, SVG Export Plug-In . SVG Version: 6.00 Build 0)  -->
<svg version="1.1" id="katman_1" xmlns="http://www.w3.org/2000/svg" xmlns:xlink="http://www.w3.org/1999/xlink" x="0px" y="0px"
	 viewBox="0 0 918 918" style="enable-background:new 0 0 918 918;" xml:space="preserve">
<style type="text/css">
	.st0{fill:#FFFFFF;}
	.st1{fill:#940000;}
</style>
<path class="st0" d="M458.81-0.06C205.24-0.06-0.31,205.49-0.31,459.06s205.56,459.12,459.12,459.12s459.12-205.56,459.12-459.12
	S712.38-0.06,458.81-0.06z M478.49,869.71c-214.15,0-387.75-173.6-387.75-387.75S264.35,94.22,478.49,94.22
	s387.75,173.6,387.75,387.75S692.64,869.71,478.49,869.71z"/>
<circle class="st0" cx="471.93" cy="471.99" r="376.15"/>
<path d="M475.16,640.29c-8.22,24.79,17.84,55.75,58.21,69.13c36.93,12.25,73.05,5.55,85.22-14.67c2.75-4.56,0-10.46-5.29-11.06
	c-81.42-9.28-127.78-50.23-127.78-50.23c-3.93-1.47-8.28,0.62-9.61,4.59L475.16,640.29z"/>
<path class="st0" d="M519.45,676.07c0,0,6.71,4.98,11.92,6.67c8.39,2.72,16.71,3.14,16.71,3.14v67.02h-21.77L519.45,676.07z"/>
<path d="M785.03,522.72l-89.37-5.6c-7.79-0.49-15.11,3.76-18.54,10.77c-3.43,7.01-2.3,15.4,2.86,21.25l61.03,69.19
	c2.3,2.61,5.15,4.45,8.22,5.49c6.34,2.17,13.64,0.97,19.02-3.79c7.99-7.05,8.76-19.24,1.71-27.24l-30.21-34.25l42.87,2.69
	c10.64,0.67,19.8-7.42,20.47-18.05C803.75,532.54,795.66,523.38,785.03,522.72z"/>
<path d="M510.17,504.2c3.09-15-3.16-30.39-15.84-38.99L348.87,366.6c-17.3-11.73-40.86-7.22-52.6,10.1
	c-11.74,17.31-7.22,40.86,10.1,52.6l69.78,47.31l-88.03,16.9c-20.54,3.94-34,23.79-30.05,44.33c2.66,13.84,12.53,24.47,24.98,28.72
	c6.03,2.06,12.65,2.62,19.35,1.34l177.82-34.13C495.26,530.87,507.08,519.2,510.17,504.2z"/>
<path d="M458.81,36.11c-233.59,0-422.95,189.36-422.95,422.95s189.36,422.95,422.95,422.95s422.95-189.36,422.95-422.95
	S692.4,36.11,458.81,36.11z M476.94,837.36c-197.27,0-357.2-159.92-357.2-357.2s159.92-357.2,357.2-357.2s357.2,159.92,357.2,357.2
	S674.22,837.36,476.94,837.36z"/>
<path class="st1" d="M539.05,684.41c4.03-0.23,7.56,0.85,10.95,2.17c12.21,4.76,21.18,12.8,23.63,26.14
	c2.54,13.88,0.38,27.25-6.41,39.75c-4.26,7.84-10.01,14.43-17.06,19.81c-8.99,6.86-19.26,8.71-30.07,5.91
	c-13.62-3.53-24.26-11.54-31.6-23.56c-5.19-8.49-5.41-17.81-2.52-27.05c2.18-6.97,5.19-13.69,7.8-20.53
	c3.8-9.97,5.26-20.17,2.75-30.7c-0.54-2.28-1.38-4.48-2.12-6.85c4.81-0.69,9.51-0.01,14.06,1.48c6.91,2.27,13.19,5.84,18.51,10.77
	c7.03,6.51,9.66,14.97,9.6,24.34c-0.05,7.52-2.17,14.58-5.25,21.39c-0.46,1.01-0.98,1.99-1.37,3.02c-0.79,2.08,0.03,4.25,1.88,5.11
	c1.96,0.91,4.32,0.22,5.18-2.02c2.22-5.79,4.66-11.57,6.11-17.57c2.54-10.54,1.52-20.88-3.76-30.58
	C539.23,685.21,539.2,684.94,539.05,684.41z"/>
</svg>
